# Blender 4.4.3
# www.blender.org
mtllib Manolo.mtl
o Manolo
v 10.000000 0.000000 -0.907793
v 9.358093 0.000000 -0.641907
v 9.092207 0.000000 0.000000
v 9.358093 0.000000 0.641907
v 10.000000 0.000000 0.907793
v 10.641907 0.000000 0.641907
v 10.907793 0.000000 0.000000
v 10.641907 0.000000 -0.641907
v 10.907793 -2.000000 0.000000
v 10.641907 -2.000000 0.641907
v 10.000000 -2.000000 0.907793
v 9.358093 -2.000000 0.641907
v 9.092207 -2.000000 0.000000
v 10.000000 1.000000 0.000000
v 9.358093 -2.000000 -0.641907
v 10.000000 -2.000000 -0.907793
v 10.641907 -2.000000 -0.641907
v 10.000000 -4.000000 0.000000
vn 0.2932 0.6426 0.7079
vn -0.7079 0.6426 0.2932
vn -0.2932 0.6426 -0.7079
vn 0.2932 0.6426 -0.7079
vn 0.7079 0.6426 0.2932
vn -0.2932 0.6426 0.7079
vn -0.7079 0.6426 -0.2932
vn 0.7079 0.6426 -0.2932
vn 0.3827 -0.0000 0.9239
vn -0.9239 -0.0000 0.3827
vn -0.3827 -0.0000 -0.9239
vn 0.3827 -0.0000 -0.9239
vn 0.9239 -0.0000 0.3827
vn -0.3827 -0.0000 0.9239
vn -0.9239 -0.0000 -0.3827
vn 0.9239 -0.0000 -0.3827
vn 0.3529 -0.3867 0.8520
vn 0.3529 -0.3867 -0.8520
vn -0.8520 -0.3867 -0.3529
vn -0.3529 -0.3867 0.8520
vn 0.8520 -0.3867 0.3529
vn 0.8520 -0.3867 -0.3529
vn -0.3529 -0.3867 -0.8520
vn -0.8520 -0.3867 0.3529
vt 0.267850 0.956841
vt 0.168527 0.836436
vt 0.188971 0.989668
vt 0.104105 0.977614
vt 0.038107 0.924210
vt 0.211112 0.687596
vt 0.284401 0.731028
vt 0.323751 0.805333
vt 0.317637 0.888748
vt 0.125350 0.687758
vt 0.639922 0.686786
vt 0.639487 0.468257
vt 0.553725 0.468419
vt 0.554160 0.686948
vt 0.811445 0.686462
vt 0.811011 0.467933
vt 0.725249 0.468095
vt 0.725684 0.686624
vt 0.296874 0.687434
vt 0.296440 0.468905
vt 0.210678 0.469067
vt 0.382636 0.687272
vt 0.382202 0.468743
vt 0.467964 0.468581
vt 0.468398 0.687110
vt 0.124916 0.469229
vt 0.644455 0.440045
vt 0.767652 0.227295
vt 0.578094 0.387071
vt 0.517170 0.233365
vt 0.529744 0.150641
vt 0.570191 0.076897
vt 0.633771 0.020774
vt 0.533942 0.315377
s 0
usemtl UV_Grid
f 6/1/1 14/2/1 5/3/1
f 4/4/2 14/2/2 3/5/2
f 2/6/3 14/2/3 1/7/3
f 1/7/4 14/2/4 8/8/4
f 7/9/5 14/2/5 6/1/5
f 5/3/6 14/2/6 4/4/6
f 3/10/7 14/2/7 2/6/7
f 8/8/8 14/2/8 7/9/8
f 5/11/9 11/12/9 10/13/9 6/14/9
f 3/15/10 13/16/10 12/17/10 4/18/10
f 1/19/11 16/20/11 15/21/11 2/6/11
f 8/22/12 17/23/12 16/20/12 1/19/12
f 6/14/13 10/13/13 9/24/13 7/25/13
f 4/18/14 12/17/14 11/12/14 5/11/14
f 2/6/15 15/21/15 13/26/15 3/10/15
f 7/25/16 9/24/16 17/23/16 8/22/16
f 11/27/17 18/28/17 10/29/17
f 17/30/18 18/28/18 16/31/18
f 15/32/19 18/28/19 13/33/19
f 12/17/20 18/28/20 11/27/20
f 10/29/21 18/28/21 9/34/21
f 9/34/22 18/28/22 17/30/22
f 16/31/23 18/28/23 15/32/23
f 13/16/24 18/28/24 12/17/24
